<svg width="25" height="17" viewBox="0 0 25 17" fill="none" xmlns="http://www.w3.org/2000/svg">
<path fill-rule="evenodd" clip-rule="evenodd" d="M6.10816 1H12.4934C15.3145 1 17.6015 3.287 17.6015 6.10816V6.26779L20.079 4.71874C20.8663 4.22664 22.5205 3.5387 23.3326 3.98879C24.1447 4.43888 23.9867 5.95613 23.9867 6.8846V10.4399C23.9886 11.3693 24.1451 12.8859 23.3326 13.3372C22.5202 13.7887 20.867 13.1034 20.079 12.6108L17.6015 11.0567V11.2163C17.6015 14.0374 15.3145 16.3245 12.4934 16.3245H6.10816C3.287 16.3245 1 14.0374 1 11.2163V6.10816C1 3.287 3.287 1 6.10816 1Z" stroke="white" stroke-linecap="round" stroke-linejoin="round"/>
<path d="M10.45 7.54545C10.45 7.24421 10.2149 7 9.925 7C9.63505 7 9.4 7.24421 9.4 7.54545H10.45ZM9.4 9C9.4 9.30124 9.63505 9.54545 9.925 9.54545C10.2149 9.54545 10.45 9.30124 10.45 9H9.4ZM10.45 9C10.45 8.69876 10.2149 8.45455 9.925 8.45455C9.63505 8.45455 9.4 8.69876 9.4 9H10.45ZM9.4 10.4545C9.4 10.7558 9.63505 11 9.925 11C10.2149 11 10.45 10.7558 10.45 10.4545H9.4ZM9.925 9.54545C10.2149 9.54545 10.45 9.30124 10.45 9C10.45 8.69876 10.2149 8.45455 9.925 8.45455V9.54545ZM8.525 8.45455C8.23505 8.45455 8 8.69876 8 9C8 9.30124 8.23505 9.54545 8.525 9.54545V8.45455ZM9.925 8.45455C9.63505 8.45455 9.4 8.69876 9.4 9C9.4 9.30124 9.63505 9.54545 9.925 9.54545V8.45455ZM11.325 9.54545C11.6149 9.54545 11.85 9.30124 11.85 9C11.85 8.69876 11.6149 8.45455 11.325 8.45455V9.54545ZM9.4 7.54545V9H10.45V7.54545H9.4ZM9.4 9V10.4545H10.45V9H9.4ZM9.925 8.45455H8.525V9.54545H9.925V8.45455ZM9.925 9.54545H11.325V8.45455H9.925V9.54545Z" fill="white"/>
</svg>
