<svg xmlns="http://www.w3.org/2000/svg" viewBox="0 0 64 64" id="Gym"><path fill="#ffffff" d="M32 2a10.994 10.994 0 0 0-1.782 21.843L32 27l1.782-3.157A10.994 10.994 0 0 0 32 2Zm3.708 17L32 16.95 28.292 19 29 14.658l-3-3.074 4.146-.634L32 7l1.854 3.95 4.146.634-3 3.074Z" class="colorf4b2b0 svgShape"></path><path fill="#ffffff" d="M62 31a1 1 0 0 0 1-1v-4a1 1 0 0 0-.293-.707l-6-6A1 1 0 0 0 56 19H42.4a12 12 0 1 0-20.8 0H8a1 1 0 0 0-.707.293l-6 6A1 1 0 0 0 1 26v4a1 1 0 0 0 1 1h1v26H2a1 1 0 0 0-1 1v4a1 1 0 0 0 1 1h60a1 1 0 0 0 1-1v-4a1 1 0 0 0-1-1h-1V31ZM22 13a10 10 0 1 1 18 6 9.948 9.948 0 0 1-6.379 3.854 1 1 0 0 0-.71.5L32 24.965l-.911-1.613a1 1 0 0 0-.71-.5A9.948 9.948 0 0 1 24 19a9.958 9.958 0 0 1-2-6ZM8.414 21h14.642a11.933 11.933 0 0 0 6.521 3.741l1.552 2.75a1 1 0 0 0 1.742 0l1.552-2.75A11.933 11.933 0 0 0 40.944 21h14.642l4 4H36v2h25v2H3v-2h25v-2H4.414ZM61 61H3v-2h58ZM19 41H9v-2h10ZM9 43h10v14H9Zm50 14H21V38a1 1 0 0 0-1-1H8a1 1 0 0 0-1 1v19H5V31h54Z" class="colorb3404a svgShape"></path><path fill="#ffffff" d="M24 55h32a1 1 0 0 0 1-1V34a1 1 0 0 0-1-1H24a1 1 0 0 0-1 1v20a1 1 0 0 0 1 1Zm1-20h30v18H25ZM10 48h2v4h-2z" class="colorb3404a svgShape"></path><path fill="#ffffff" d="M50 40h-1.184A2.993 2.993 0 0 0 43 41h-6a2.993 2.993 0 0 0-5.816-1H30a3 3 0 0 0-3 3v2a3 3 0 0 0 3 3h1.184A2.993 2.993 0 0 0 37 47h6a2.993 2.993 0 0 0 5.816 1H50a3 3 0 0 0 3-3v-2a3 3 0 0 0-3-3zm-21 5v-2a1 1 0 0 1 1-1h1v4h-1a1 1 0 0 1-1-1zm6 2a1 1 0 0 1-2 0v-6a1 1 0 0 1 2 0zm2-2v-2h6v2zm10 2a1 1 0 0 1-2 0v-6a1 1 0 0 1 2 0zm4-2a1 1 0 0 1-1 1h-1v-4h1a1 1 0 0 1 1 1zM27.932 15l-.627 3.844a1 1 0 0 0 1.471 1.036L32 18.093l3.224 1.782a1 1 0 0 0 1.476-1.036L36.068 15l2.648-2.713a1 1 0 0 0-.565-1.686l-3.618-.554-1.628-3.472a1 1 0 0 0-1.81 0l-1.628 3.467-3.618.554a1 1 0 0 0-.565 1.686zm2.368-3.062a.994.994 0 0 0 .754-.563L32 9.354l.949 2.021a.994.994 0 0 0 .754.563l2.222.34-1.641 1.682a1 1 0 0 0-.271.859l.377 2.31-1.906-1.054a1 1 0 0 0-.968 0l-1.906 1.054.377-2.31a1 1 0 0 0-.271-.859l-1.641-1.682z" class="colorb3404a svgShape"></path></svg>