<svg width="36" height="36" viewBox="0 0 36 36" fill="none" xmlns="http://www.w3.org/2000/svg">
<path d="M21.9263 17.541H8.77052M8.77052 17.541L11.694 20.4645M8.77052 17.541L11.694 14.6175" stroke="#FF0B1A" stroke-width="2.19263" stroke-linecap="round" stroke-linejoin="round"/>
<path d="M17.541 32.1332C15.2702 32.0648 13.9158 31.8115 12.9784 30.8741C11.8552 29.7509 11.7142 28.0291 11.6965 24.8498M23.388 32.156C26.5673 32.1383 28.2891 31.9973 29.4123 30.8741C30.6968 29.5896 30.6968 27.5224 30.6968 23.388V20.4645V14.6175V11.694C30.6968 7.55954 30.6968 5.49232 29.4123 4.20791C28.1279 2.9235 26.0607 2.9235 21.9263 2.9235H20.4645C16.33 2.9235 14.2628 2.9235 12.9784 4.20791C11.8552 5.33109 11.7142 7.0529 11.6965 10.2323" stroke="#FF0B1A" stroke-width="2.19263" stroke-linecap="round"/>
<path d="M4.38527 13.8866V21.1954C4.38527 24.6407 4.38527 26.3634 5.45561 27.4338C6.52596 28.5041 8.24865 28.5041 11.694 28.5041M5.45561 7.64821C6.52596 6.57787 8.24865 6.57787 11.694 6.57787" stroke="#FF0B1A" stroke-width="2.19263" stroke-linecap="round"/>
</svg>
