<svg xmlns="http://www.w3.org/2000/svg" viewBox="0 0 24 24" id="Settings"><path fill="none" stroke="#000000" stroke-linecap="round" stroke-linejoin="round" d="M23.5 14.3V9.7L21 9.08a9.43 9.43 0 0 0-.59-1.41l1.31-2.18-3.21-3.25-2.18 1.31A9.43 9.43 0 0 0 14.92 3L14.3.5H9.7L9.08 3a9.43 9.43 0 0 0-1.41.59L5.49 2.24 2.24 5.49l1.31 2.18A9.43 9.43 0 0 0 3 9.08L.5 9.7v4.6l2.5.62a9.43 9.43 0 0 0 .59 1.41l-1.35 2.18 3.25 3.25 2.18-1.31a9.43 9.43 0 0 0 1.41.55l.62 2.5h4.6l.62-2.5a9.43 9.43 0 0 0 1.41-.59l2.18 1.31 3.25-3.25-1.31-2.18a9.43 9.43 0 0 0 .55-1.37Z" class="colorStroke303c42 svgStroke"></path><circle cx="12" cy="12" r="5.5" fill="none" stroke="#000000" stroke-linecap="round" stroke-linejoin="round" class="colorStroke303c42 svgStroke"></circle></svg>