<svg width="20" height="20" viewBox="0 0 20 20" fill="none" xmlns="http://www.w3.org/2000/svg">
<path d="M11.0781 -0.00012207C11.3721 -0.00012207 11.6351 0.182878 11.7341 0.456878L12.4401 2.41388C12.6928 2.47654 12.9108 2.54054 13.0941 2.60588C13.2941 2.67721 13.5541 2.78721 13.8741 2.93588L15.5181 2.06588C15.6522 1.99446 15.8059 1.96861 15.956 1.99225C16.1061 2.01588 16.2444 2.0877 16.3501 2.19688L17.7961 3.69188C17.9881 3.89088 18.0421 4.18188 17.9341 4.43588L17.1631 6.24288C17.2905 6.47754 17.3931 6.67888 17.4711 6.84688C17.5551 7.02888 17.6591 7.28221 17.7831 7.60688L19.5801 8.37688C19.8501 8.49188 20.0171 8.76188 19.9991 9.05088L19.8671 11.1259C19.8581 11.2607 19.8097 11.3899 19.7279 11.4974C19.6462 11.605 19.5346 11.6861 19.4071 11.7309L17.7051 12.3359C17.6565 12.5705 17.6051 12.7725 17.5511 12.9419C17.4637 13.2043 17.3643 13.4626 17.2531 13.7159L18.1081 15.6059C18.1689 15.7386 18.1855 15.8873 18.1552 16.0301C18.1249 16.173 18.0495 16.3022 17.9401 16.3989L16.3141 17.8509C16.2073 17.9465 16.0736 18.007 15.9312 18.0241C15.7889 18.0413 15.6447 18.0143 15.5181 17.9469L13.8421 17.0589C13.5802 17.1983 13.3096 17.3208 13.0321 17.4259L12.3001 17.6999L11.6501 19.4999C11.6015 19.6314 11.5145 19.7453 11.4004 19.8267C11.2863 19.9082 11.1503 19.9536 11.0101 19.9569L9.11012 19.9999C8.96618 20.0032 8.8247 19.9621 8.70498 19.8821C8.58526 19.8021 8.49312 19.6871 8.44112 19.5529L7.67512 17.5259C7.41384 17.4364 7.15507 17.3397 6.89912 17.2359C6.68984 17.1453 6.48372 17.0476 6.28112 16.9429L4.38112 17.7549C4.25598 17.8085 4.1179 17.8245 3.9838 17.8009C3.8497 17.7773 3.7254 17.7151 3.62612 17.6219L2.22012 16.3029C2.11505 16.2054 2.04349 16.0771 2.01565 15.9365C1.98782 15.7959 2.00513 15.6501 2.06512 15.5199L2.88212 13.7399C2.77385 13.5289 2.67312 13.3141 2.58012 13.0959C2.4718 12.8287 2.37175 12.5582 2.28012 12.2849L0.490123 11.7399C0.344624 11.6959 0.217718 11.6051 0.129113 11.4816C0.0405085 11.3581 -0.00483544 11.2088 0.000123329 11.0569L0.0701233 9.13588C0.0753235 9.01059 0.114565 8.8891 0.183631 8.78444C0.252698 8.67978 0.348977 8.59592 0.462123 8.54188L2.34012 7.63988C2.42679 7.32121 2.50346 7.07188 2.57012 6.89188C2.66448 6.65013 2.76924 6.41257 2.88412 6.17988L2.07012 4.45988C2.00788 4.32936 1.98887 4.18239 2.01584 4.04033C2.04281 3.89827 2.11437 3.7685 2.22012 3.66988L3.62412 2.34388C3.72241 2.25083 3.84557 2.18827 3.97868 2.16378C4.11179 2.13929 4.24915 2.15391 4.37412 2.20588L6.27212 2.98988C6.48146 2.85054 6.67212 2.73588 6.84412 2.64588C7.04879 2.53788 7.32346 2.42254 7.66812 2.29988L8.32812 0.458878C8.37741 0.32447 8.46672 0.208405 8.58402 0.126332C8.70132 0.0442594 8.84096 0.000124539 8.98412 -0.00012207L11.0781 -0.00012207ZM10.5881 1.37688H9.47512L8.87012 3.07088C8.8341 3.1694 8.77639 3.25856 8.70127 3.33178C8.62615 3.405 8.53554 3.4604 8.43612 3.49388C8.00012 3.63888 7.68512 3.76388 7.50112 3.86088C7.30512 3.96421 7.05846 4.12088 6.76112 4.33088C6.66436 4.39913 6.55187 4.44172 6.43417 4.45466C6.31646 4.4676 6.1974 4.45047 6.08812 4.40488L4.25812 3.64988L3.54512 4.32388L4.28812 5.89388C4.33261 5.98729 4.35519 6.08962 4.35415 6.19307C4.35311 6.29653 4.32847 6.39838 4.28212 6.49088C4.08212 6.89188 3.94712 7.18788 3.87912 7.36988C3.7744 7.67271 3.6843 7.9804 3.60912 8.29188C3.584 8.38933 3.53786 8.48011 3.47394 8.55784C3.41003 8.63558 3.32988 8.69839 3.23912 8.74188L1.44912 9.60088L1.41312 10.5809L3.03312 11.0729C3.24812 11.1379 3.41812 11.3029 3.48912 11.5149C3.64979 11.9962 3.77646 12.3482 3.86912 12.5709C3.99103 12.8526 4.12583 13.1286 4.27312 13.3979C4.32295 13.4905 4.3506 13.5935 4.3539 13.6986C4.3572 13.8038 4.33605 13.9083 4.29212 14.0039L3.54112 15.6419L4.25212 16.3099L6.03412 15.5479C6.13006 15.5066 6.234 15.4874 6.33834 15.4916C6.44268 15.4957 6.54477 15.5232 6.63712 15.5719C7.00379 15.7639 7.27346 15.8965 7.44612 15.9699C7.62112 16.0429 7.95612 16.1649 8.44212 16.3309C8.53837 16.3642 8.62618 16.4182 8.69941 16.489C8.77265 16.5599 8.82954 16.6458 8.86612 16.7409L9.57412 18.6119L10.5001 18.5919L11.0971 16.9379C11.1317 16.8438 11.1862 16.7582 11.2567 16.6869C11.3273 16.6157 11.4123 16.5604 11.5061 16.5249L12.5431 16.1369C12.8058 16.0402 13.1228 15.8869 13.4941 15.6769C13.5967 15.6189 13.7123 15.5878 13.8301 15.5864C13.9479 15.585 14.0642 15.6134 14.1681 15.6689L15.7451 16.5039L16.6321 15.7129L15.8561 13.9999C15.8162 13.912 15.7955 13.8165 15.7953 13.72C15.7951 13.6234 15.8155 13.5279 15.8551 13.4399C16.0371 13.0329 16.1601 12.7259 16.2221 12.5299C16.2841 12.3365 16.3458 12.0615 16.4071 11.7049C16.4281 11.584 16.481 11.4708 16.5602 11.3771C16.6395 11.2834 16.7423 11.2126 16.8581 11.1719L18.5061 10.5869L18.5781 9.44688L16.9581 8.75288C16.8721 8.71577 16.7944 8.66178 16.7297 8.5941C16.6649 8.52642 16.6144 8.44643 16.5811 8.35888C16.4658 8.04003 16.3398 7.72518 16.2031 7.41488C16.074 7.1446 15.9339 6.87972 15.7831 6.62088C15.7307 6.52948 15.7003 6.42716 15.6943 6.322C15.6882 6.21684 15.7066 6.1117 15.7481 6.01488L16.4731 4.31488L15.7091 3.52488L14.2211 4.31288C14.1241 4.36463 14.0162 4.39278 13.9062 4.39503C13.7962 4.39729 13.6872 4.3736 13.5881 4.32588C13.2725 4.16844 12.9494 4.02628 12.6201 3.89988C12.3396 3.80516 12.0534 3.72834 11.7631 3.66988C11.6482 3.64495 11.5415 3.59148 11.4527 3.5144C11.3639 3.43733 11.296 3.33913 11.2551 3.22888L10.5881 1.37688ZM10.0241 5.64088C12.4591 5.64088 14.4341 7.59388 14.4341 10.0019C14.4341 12.4099 12.4591 14.3619 10.0241 14.3619C7.58912 14.3619 5.61412 12.4099 5.61412 10.0019C5.61412 7.59388 7.58812 5.64188 10.0241 5.64188M10.0241 7.01988C8.35712 7.01988 7.00612 8.35488 7.00612 10.0029C7.00612 11.6509 8.35712 12.9869 10.0241 12.9869C11.6911 12.9869 13.0411 11.6509 13.0411 10.0029C13.0411 8.35488 11.6911 7.01988 10.0241 7.01988Z" fill="black"/>
</svg>
