<svg width="25" height="26" viewBox="0 0 25 26" fill="none" xmlns="http://www.w3.org/2000/svg">
<path opacity="0.5" d="M14.7751 17.9384L9.30298 14.3267" stroke="#C1C4C7" stroke-width="1.5427" stroke-linecap="round"/>
<path opacity="0.5" d="M14.878 7.69293L9.40588 11.3046" stroke="#C1C4C7" stroke-width="1.5427" stroke-linecap="round"/>
<path d="M9.30299 12.4858C9.30299 13.9058 8.15183 15.057 6.73182 15.057C5.3118 15.057 4.16064 13.9058 4.16064 12.4858C4.16064 11.0658 5.3118 9.91461 6.73182 9.91461C8.15183 9.91461 9.30299 11.0658 9.30299 12.4858Z" stroke="black" stroke-width="1.5427"/>
<path d="M19.5877 19.6851C19.5877 21.1051 18.4365 22.2562 17.0165 22.2562C15.5965 22.2562 14.4453 21.1051 14.4453 19.6851C14.4453 18.2651 15.5965 17.1139 17.0165 17.1139C18.4365 17.1139 19.5877 18.2651 19.5877 19.6851Z" stroke="black" stroke-width="1.5427"/>
<path d="M19.5877 6.31495C19.5877 7.73496 18.4365 8.88612 17.0165 8.88612C15.5965 8.88612 14.4453 7.73496 14.4453 6.31495C14.4453 4.89493 15.5965 3.74377 17.0165 3.74377C18.4365 3.74377 19.5877 4.89493 19.5877 6.31495Z" stroke="black" stroke-width="1.5427"/>
</svg>
