<svg width="79" height="79" viewBox="0 0 79 79" fill="none" xmlns="http://www.w3.org/2000/svg">
<rect width="79" height="79" rx="8" fill="#E1E1E1"/>
<path d="M42.8179 34.9254V36.1754H44.0679H52.4186H52.4254C54.2592 36.1754 55.75 37.6662 55.75 39.5C55.75 41.3338 54.2592 42.8246 52.4254 42.8246H44.0746H42.8246V44.0746V52.4254C42.8246 54.2592 41.3338 55.75 39.5 55.75C37.6662 55.75 36.1754 54.2592 36.1754 52.4254V44.0746V42.8246H34.9254H26.5746C24.7408 42.8246 23.25 41.3338 23.25 39.5C23.25 37.6662 24.7408 36.1754 26.5746 36.1754H34.9186H36.1686V34.9254V26.5746C36.1686 24.7408 37.6594 23.25 39.4932 23.25C41.327 23.25 42.8179 24.7408 42.8179 26.5746V34.9254Z" fill="black" stroke="#E1E1E1" stroke-width="2.5"/>
</svg>
