<svg xmlns="http://www.w3.org/2000/svg" enable-background="new 0 0 16 16" viewBox="0 0 16 16" id="uploademail">
  <g id="line" display="none" fill="#ffffff" class="color000000 svgShape">
    <path fill="none" stroke="#000000" stroke-linecap="round" stroke-linejoin="round" stroke-miterlimit="10" d="M11.5,13.5h-10c-0.6,0-1-0.4-1-1v-9c0-0.6,0.4-1,1-1h13c0.6,0,1,0.4,1,1v4" class="colorStroke000000 svgStroke"></path>
    <polyline fill="none" stroke="#000" stroke-linejoin="round" stroke-miterlimit="10" points="15.2 2.8 8 8.5 .8 2.8"></polyline>
    <polyline fill="none" stroke="#000" stroke-linecap="round" stroke-linejoin="round" stroke-miterlimit="10" points="15.5 10.5 13.5 8.5 11.5 10.5"></polyline>
    <line x1="13.5" x2="13.5" y1="9" y2="13.5" fill="none" stroke="#000000" stroke-linecap="round" stroke-linejoin="round" stroke-miterlimit="10" class="colorStroke000000 svgStroke"></line>
  </g>
  <g id="line_expanded" display="none" fill="#ffffff" class="color000000 svgShape">
    <path d="M14.5,2h-13C0.7,2,0,2.7,0,3.5v9C0,13.3,0.7,14,1.5,14h10c0.3,0,0.5-0.2,0.5-0.5S11.8,13,11.5,13h-10
			C1.2,13,1,12.8,1,12.5v-9l6.7,5.4C7.8,9,7.9,9,8,9s0.2,0,0.3-0.1L15,3.5v4C15,7.8,15.2,8,15.5,8S16,7.8,16,7.5v-4
			C16,2.7,15.3,2,14.5,2z M8,7.9L1.9,3h12.1L8,7.9z" fill="#ffffff" class="color000000 svgShape"></path>
    <path d="M13.9,8.1c-0.2-0.2-0.5-0.2-0.7,0l-2,2c-0.2,0.2-0.2,0.5,0,0.7s0.5,0.2,0.7,0L13,9.7v3.8c0,0.3,0.2,0.5,0.5,0.5
			s0.5-0.2,0.5-0.5V9.7l1.1,1.1c0.1,0.1,0.2,0.1,0.4,0.1s0.3,0,0.4-0.1c0.2-0.2,0.2-0.5,0-0.7L13.9,8.1z" fill="#ffffff" class="color000000 svgShape"></path>
  </g>
  <g id="filled_line" display="none" fill="#ffffff" class="color000000 svgShape">
    <path fill="#acacac" d="M15.2,2.8L8,8.5L2,3.7v7.8c0,1.1,0.9,2,2,2h10.5c0.6,0,1-0.4,1-1v-9C15.5,3.2,15.4,2.9,15.2,2.8z" class="colorf9b65f svgShape"></path>
    <path fill="#848484" d="M15.2,2.8L8,8.5L0.8,2.8C1,2.6,1.2,2.5,1.5,2.5h13C14.8,2.5,15,2.6,15.2,2.8z" class="colore67e22 svgShape"></path>
    <path fill="#3c3c3c" d="M14.5,2h-13C0.7,2,0,2.7,0,3.5v9C0,13.3,0.7,14,1.5,14h10c0.3,0,0.5-0.2,0.5-0.5S11.8,13,11.5,13h-10
				C1.2,13,1,12.8,1,12.5v-9l6.7,5.4C7.8,9,7.9,9,8,9s0.2,0,0.3-0.1L15,3.5v4C15,7.8,15.2,8,15.5,8S16,7.8,16,7.5v-4
				C16,2.7,15.3,2,14.5,2z M8,7.9L1.9,3h12.1L8,7.9z" class="color3e3643 svgShape"></path>
    <path fill="#cecece" d="M13.9,8.1c-0.2-0.2-0.5-0.2-0.7,0l-2,2c-0.2,0.2-0.2,0.5,0,0.7s0.5,0.2,0.7,0L13,9.7v3.8
				c0,0.3,0.2,0.5,0.5,0.5s0.5-0.2,0.5-0.5V9.7l1.1,1.1c0.1,0.1,0.2,0.1,0.4,0.1s0.3,0,0.4-0.1c0.2-0.2,0.2-0.5,0-0.7L13.9,8.1z" class="colorc7ced6 svgShape"></path>
  </g>
  <g id="flat" display="none" fill="#ffffff" class="color000000 svgShape">
    <path fill="#9f9f9f" d="M15.5,2.4L15.5,2.4C15.5,2.4,15.5,2.4,15.5,2.4c-0.1-0.1-0.2-0.1-0.2-0.2C15.1,2.1,15,2.1,14.8,2
			c-0.1,0-0.2,0-0.3,0H8v7c0.1,0,0.2,0,0.3-0.1l7.2-5.8c0.1-0.1,0.2-0.2,0.2-0.4C15.7,2.6,15.6,2.5,15.5,2.4z" class="colorfc9942 svgShape"></path>
    <path fill="#a2a2a2" d="M15.5,2.4c0.1,0.1,0.2,0.2,0.2,0.4c0,0.1-0.1,0.3-0.2,0.4L8.3,8.9C8.2,9,8.1,9,8,9v5h6.5
			c0.8,0,1.5-0.7,1.5-1.5v-9C16,3.1,15.8,2.7,15.5,2.4z" class="colorffda45 svgShape"></path>
    <path fill="#a3a3a3" d="M8,2H1.5C1.4,2,1.3,2,1.2,2C1,2.1,0.9,2.1,0.7,2.2c-0.1,0-0.1,0.1-0.2,0.1c0,0,0,0,0,0l0,0
			C0.4,2.5,0.3,2.6,0.3,2.8c0,0.1,0.1,0.3,0.2,0.4l7.2,5.8C7.8,9,7.9,9,8,9V2z" class="colorffc247 svgShape"></path>
    <path fill="#b6b6b6" d="M8,9C7.9,9,7.8,9,7.7,8.9L0.5,3.1C0.4,3,0.3,2.9,0.3,2.8c0-0.1,0.1-0.3,0.2-0.4C0.2,2.7,0,3.1,0,3.5v9
			C0,13.3,0.7,14,1.5,14H8V9z" class="colorffee6e svgShape"></path>
    <path fill="#ffffff" d="M15.9,10.1l-2-2c-0.2-0.2-0.5-0.2-0.7,0l-2,2c-0.2,0.2-0.2,0.5,0,0.7s0.5,0.2,0.7,0L13,9.7v3.8
			c0,0.3,0.2,0.5,0.5,0.5s0.5-0.2,0.5-0.5V9.7l1.1,1.1c0.1,0.1,0.2,0.1,0.4,0.1s0.3,0,0.4-0.1C16,10.7,16,10.3,15.9,10.1z" class="colorcfd3d4 svgShape"></path>
  </g>
  <g id="colored_line" fill="#ffffff" class="color000000 svgShape">
    <path fill="#4b4b4b" d="M8,9C7.9,9,7.8,9,7.7,8.9L0.5,3.1l0.6-0.8L8,7.9l6.8-5.5l0.6,0.8L8.3,8.9C8.2,9,8.1,9,8,9z" class="color3e5959 svgShape"></path>
    <path fill="#898989" d="M11.5,14h-10C0.7,14,0,13.3,0,12.5v-9C0,2.7,0.7,2,1.5,2h13C15.3,2,16,2.7,16,3.5v4C16,7.8,15.8,8,15.5,8
				S15,7.8,15,7.5v-4C15,3.2,14.8,3,14.5,3h-13C1.2,3,1,3.2,1,3.5v9C1,12.8,1.2,13,1.5,13h10c0.3,0,0.5,0.2,0.5,0.5S11.8,14,11.5,14
				z" class="color1689fc svgShape"></path>
    <path fill="#4b4b4b" d="M15.9,10.1l-2-2c-0.2-0.2-0.5-0.2-0.7,0l-2,2c-0.2,0.2-0.2,0.5,0,0.7s0.5,0.2,0.7,0L13,9.7v3.8
			c0,0.3,0.2,0.5,0.5,0.5s0.5-0.2,0.5-0.5V9.7l1.1,1.1c0.1,0.1,0.2,0.1,0.4,0.1s0.3,0,0.4-0.1C16,10.7,16,10.3,15.9,10.1z" class="color3e5959 svgShape"></path>
  </g>
  <g id="duo_tone" display="none" fill="#ffffff" class="color000000 svgShape">
    <path fill="#767676" d="M15.5,3.5v7l-2-2l0,5h-12c-0.6,0-1-0.4-1-1v-9c0-0.3,0.1-0.6,0.3-0.8L8,8.5l7.2-5.8
			C15.4,2.9,15.5,3.2,15.5,3.5z" class="color00ecce svgShape"></path>
    <path fill="#515151" d="M14.5,2h-13C0.7,2,0,2.7,0,3.5v9C0,13.3,0.7,14,1.5,14h10c0.3,0,0.5-0.2,0.5-0.5S11.8,13,11.5,13h-10
				C1.2,13,1,12.8,1,12.5v-9l6.7,5.4C7.8,9,7.9,9,8,9s0.2,0,0.3-0.1L15,3.5v4C15,7.8,15.2,8,15.5,8S16,7.8,16,7.5v-4
				C16,2.7,15.3,2,14.5,2z M8,7.9L1.9,3h12.1L8,7.9z" class="color01a28e svgShape"></path>
    <path fill="#515151" d="M13.9,8.1c-0.2-0.2-0.5-0.2-0.7,0l-2,2c-0.2,0.2-0.2,0.5,0,0.7s0.5,0.2,0.7,0L13,9.7v3.8
				c0,0.3,0.2,0.5,0.5,0.5s0.5-0.2,0.5-0.5V9.7l1.1,1.1c0.1,0.1,0.2,0.1,0.4,0.1s0.3,0,0.4-0.1c0.2-0.2,0.2-0.5,0-0.7L13.9,8.1z" class="color01a28e svgShape"></path>
  </g>
</svg>
