<svg xmlns="http://www.w3.org/2000/svg" xml:space="preserve" fill-rule="evenodd" clip-rule="evenodd" image-rendering="optimizeQuality" shape-rendering="geometricPrecision" text-rendering="geometricPrecision" viewBox="0 0 2048 2048" id="Users">
  <g id="Layer_x0020_1" fill="#000000" class="color000000 svgShape">
    <path d="M0 0h2048v2048H0z" fill="none"></path>
    <path d="M255.999 255.999h1536v1536h-1536z" fill="none"></path>
    <path d="M255.999 256.001h1536v1536h-1536z" fill="none"></path>
    <g id="_561014760" fill="#000000" class="color000000 svgShape">
      <path id="_561014928" d="M255.999 256.001h1536v1536h-1536z" fill="none"></path>
      <path id="_561014832" d="M1702.67 956.147c-25.982-163.789-111.834-308.319-234.104-411.672-121.051-102.315-277.895-164.124-447.747-164.124-169.321 0-324.166 61.396-443.435 163.103C456.126 646.85 371.407 791.783 345.339 956.147l-89.333-14.183c29.54-186.229 125.382-350.328 262.538-467.28C653.89 359.265 829.306 289.594 1020.82 289.594c191.897 0 369.235 69.945 506.246 185.75 138.295 116.893 235.45 280.707 264.94 466.62l-89.335 14.183zM393.94 912.741c0-76.025 62.023-137.824 138.039-137.824 76.146 0 137.987 61.8 137.987 137.825 0 76.196-61.841 137.987-137.987 137.987-76.016 0-138.039-61.791-138.039-137.987zm625.094 393.39c124.336 0 225.631-101.278 225.631-225.606 0-124.302-101.158-225.639-225.631-225.639-124.336 0-225.443 101.337-225.443 225.64 0 124.327 101.107 225.605 225.443 225.605zm487.072-255.403c76.197 0 137.987-61.79 137.987-137.816 0-76.017-61.79-137.997-137.987-137.997-76.017 0-137.816 61.98-137.816 137.997 0 76.026 61.799 137.816 137.816 137.816zm-744.207 162.597l1.912-2.212-.523-2.983c-11.757-77.209-52.093-139.18-113.583-174.508l-4.34-2.616-3.446 3.627c-29.095 30.51-68.06 47.317-109.939 47.317-41.75 0-80.715-16.807-109.81-47.317l-3.456-3.627-4.519 2.435c-61.259 35.509-101.639 97.48-113.567 174.69l-.352 2.983 1.913 2.212c61.302 73.436 142.858 113.952 229.79 113.952 86.925 0 168.618-40.516 229.92-113.952zm975.558-5.016c-11.8-77.217-52.135-139.179-113.617-174.688l-4.287-2.616-3.465 3.627c-29.13 30.51-68.093 47.318-109.982 47.318-41.716 0-80.86-16.807-109.75-47.318l-3.506-3.627-4.485 2.616c-61.302 35.509-101.639 97.47-113.42 174.688l-.497 2.804 1.92 2.212c61.251 73.625 142.806 114.132 229.74 114.132 86.924 0 168.496-40.696 229.798-114.132l1.913-2.212-.36-2.804zm-525.856 69.594l-7.143-4.124-5.677 5.89c-47.47 49.872-111.345 77.209-179.568 77.209-68.393 0-132.31-27.337-179.747-77.209l-5.71-5.89-7.108 4.124c-100.44 58.027-166.388 159.313-185.57 285.724l-.892 4.656 3.096 3.645c100.274 120.357 233.769 186.477 375.932 186.477 141.992 0 275.495-66.12 375.718-186.477l3.156-3.645-.9-4.656c-19.235-126.41-85.192-227.698-185.587-285.724z" fill="#000000" fill-rule="nonzero" class="color424242 svgShape"></path>
    </g>
  </g>
</svg>
